<?xml version="1.0" standalone="no"?>
<!DOCTYPE svg PUBLIC "-//W3C//DTD SVG 20010904//EN"
 "http://www.w3.org/TR/2001/REC-SVG-20010904/DTD/svg10.dtd">
<svg version="1.0" xmlns="http://www.w3.org/2000/svg"
 width="150.000000pt" height="110.000000pt" viewBox="0 0 150.000000 110.000000"
 preserveAspectRatio="xMidYMid meet">

<g transform="translate(0.000000,110.000000) scale(0.100000,-0.100000)"
fill="#000000" stroke="none">
<path d="M855 854 c-59 -41 -80 -61 -80 -77 0 -19 5 -22 36 -21 l36 1 5 -106
c4 -69 11 -118 21 -138 18 -34 65 -58 96 -48 17 5 21 16 24 78 l3 72 2 -82 2
-82 -47 -6 c-81 -9 -144 -26 -234 -61 -47 -19 -95 -34 -105 -34 -10 0 -46 -9
-78 -20 -86 -29 -141 -27 -175 8 -15 15 -30 33 -32 40 -6 17 -39 5 -39 -15 0
-23 48 -61 103 -80 38 -13 82 -18 158 -18 88 0 110 -3 127 -18 18 -17 21 -17
70 8 83 42 193 65 307 65 l101 0 22 52 c24 57 20 68 -31 68 -25 0 -32 8 -60
68 -26 55 -32 80 -32 136 0 65 1 69 34 97 30 24 32 30 21 44 -18 22 -96 75
-109 75 -6 0 -12 -42 -14 -107 l-3 -108 -2 117 c-1 64 -5 123 -8 132 -10 26
-35 18 -119 -40z m107 -156 c2 -106 0 -197 -4 -202 -9 -12 -65 12 -74 32 -5
10 -11 71 -14 137 l-5 120 -40 -2 c-40 -2 -40 -2 -17 14 13 9 47 33 75 54 29
20 57 38 64 38 9 1 13 -49 15 -191z m-54 -290 c1 -7 4 -26 8 -43 4 -20 3 -27
-3 -20 -13 13 -25 75 -14 75 4 0 8 -6 9 -12z m99 -2 c-3 -7 0 -19 6 -25 8 -8
8 -14 0 -22 -12 -12 -33 -4 -33 12 0 6 6 7 13 3 8 -6 8 -3 -1 9 -14 17 -9 37
10 37 5 0 8 -6 5 -14z m-137 -21 c8 0 16 -11 18 -25 4 -25 3 -25 -13 -5 -16
20 -16 20 -12 -2 8 -34 -9 -28 -22 8 -14 41 -14 58 2 39 7 -8 19 -15 27 -15z
m95 15 c7 -12 -16 -70 -27 -70 -5 0 -8 8 -8 18 0 9 -3 27 -6 40 -5 17 -2 22
14 22 12 0 24 -5 27 -10z m-161 -37 c-6 -22 -4 -25 10 -20 10 4 16 1 16 -9 0
-22 -44 -14 -48 9 -5 23 4 47 18 47 6 0 8 -10 4 -27z"/>
<path d="M728 808 c-42 -23 -75 -45 -72 -50 3 -4 -13 -8 -35 -8 -47 0 -178
-44 -204 -69 -15 -15 -16 -19 -3 -36 13 -18 17 -19 48 -6 48 20 84 24 103 13
15 -8 7 -15 -46 -41 -146 -74 -204 -184 -136 -258 29 -32 91 -30 180 6 40 16
96 37 125 46 l52 17 -1 86 c-1 138 -11 192 -43 219 -18 15 -22 23 -12 23 8 0
35 17 59 38 24 20 53 42 63 49 46 29 -8 9 -78 -29z m-52 -86 c24 -16 32 -52
35 -161 l4 -114 -35 -13 c-56 -20 -58 -19 -52 36 4 44 2 52 -26 80 -37 36 -82
40 -113 9 -42 -42 -3 -129 65 -148 l31 -8 -40 -18 c-22 -10 -63 -20 -91 -22
-45 -5 -53 -3 -68 18 -21 31 -20 51 4 99 23 45 61 76 148 119 34 17 62 36 62
41 0 6 -9 19 -20 30 -24 24 -74 26 -110 5 -29 -17 -40 -18 -40 -6 0 5 8 11 18
14 9 3 42 15 72 26 55 20 135 27 156 13z m-81 -197 c27 -26 31 -46 15 -76 -24
-45 -110 -6 -110 49 0 55 53 70 95 27z"/>
<path d="M280 725 c0 -3 11 -27 24 -53 13 -26 31 -72 41 -102 l17 -55 42 40
c22 22 52 49 66 58 19 14 20 15 3 7 -53 -25 -100 -2 -91 45 4 17 1 25 -9 25
-7 0 -32 9 -53 20 -22 11 -40 18 -40 15z"/>
<path d="M1110 705 c-17 -21 -24 -93 -13 -135 9 -32 10 -29 10 30 1 36 6 77
12 93 12 30 9 34 -9 12z"/>
<path d="M1132 648 c-7 -7 -11 -35 -11 -62 l1 -51 8 51 c4 29 11 57 14 63 9
15 3 14 -12 -1z"/>
<path d="M773 633 c-19 -4 -23 -11 -23 -44 0 -29 3 -38 13 -33 44 26 67 48 67
65 0 19 -10 21 -57 12z m47 -22 c0 -7 -43 -31 -55 -31 -16 0 -1 32 18 39 23 9
37 6 37 -8z"/>
<path d="M281 574 c0 -11 3 -14 6 -6 3 7 2 16 -1 19 -3 4 -6 -2 -5 -13z"/>
<path d="M311 518 c0 -31 -6 -69 -11 -84 -16 -42 -2 -42 15 1 13 29 14 48 7
89 l-10 51 -1 -57z"/>
<path d="M290 543 c0 -5 -5 -26 -10 -48 -8 -36 -7 -38 6 -21 13 18 20 76 9 76
-3 0 -5 -3 -5 -7z"/>
</g>
</svg>
